<svg id="Capa_1" enable-background="new 0 0 511.996 511.996" height="512" viewBox="0 0 511.996 511.996" width="512" xmlns="http://www.w3.org/2000/svg"><path d="m457.903 279.52h-8.034v-22.712c0-4.143-3.357-7.5-7.5-7.5s-7.5 3.357-7.5 7.5v22.712h-47.12v-109.172h47.12v53.78c0 4.143 3.357 7.5 7.5 7.5s7.5-3.357 7.5-7.5v-61.28c0-4.143-3.357-7.5-7.5-7.5h-23.559v-16.797c17.684-3.501 31.062-19.127 31.062-37.824 0-18.554-26.981-58.557-32.391-66.388-4.114-4.316-8.228-4.316-12.342 0-5.409 7.831-32.392 47.834-32.392 66.388 0 18.697 13.377 34.323 31.063 37.824v16.797h-23.562c-4.143 0-7.5 3.357-7.5 7.5v116.672h-8.032c-4.143 0-7.5 3.357-7.5 7.5v31.063c0 4.143 3.357 7.5 7.5 7.5h22.919c-3.651 26.536-26.457 47.046-53.976 47.046-30.048 0-54.501-24.445-54.51-54.51v-23.639h23.443c4.143 0 7.5-3.357 7.5-7.5v-31.063c0-4.143-3.357-7.5-7.5-7.5h-8.034v-62.029c0-4.143-3.357-7.5-7.5-7.5s-7.5 3.357-7.5 7.5v62.029h-47.12v-109.169h47.12v14.45c0 4.143 3.357 7.5 7.5 7.5s7.5-3.357 7.5-7.5v-21.95c0-4.143-3.357-7.5-7.5-7.5h-23.56v-16.799c17.685-3.501 31.062-19.127 31.062-37.824 0-18.554-26.982-58.557-32.392-66.388-4.114-4.316-8.228-4.316-12.342 0-5.409 7.831-32.391 47.834-32.391 66.388 0 18.697 13.377 34.323 31.062 37.824v16.799h-23.56c-4.142 0-7.5 3.357-7.5 7.5v116.669h-8.033c-4.142 0-7.5 3.357-7.5 7.5v31.063c0 4.143 3.358 7.5 7.5 7.5h23.443v23.648c0 30.052-24.453 54.5-54.51 54.5-27.508 0-50.308-20.494-53.972-47.046h22.915c4.142 0 7.5-3.357 7.5-7.5v-31.062c0-4.143-3.358-7.5-7.5-7.5h-8.032v-116.672c0-4.143-3.358-7.5-7.5-7.5h-23.561v-16.797c17.685-3.501 31.062-19.127 31.062-37.824 0-18.554-26.982-58.557-32.391-66.388-4.114-4.316-8.228-4.316-12.342 0-5.409 7.831-32.392 47.834-32.392 66.388 0 18.697 13.377 34.323 31.063 37.824v16.797h-23.559c-4.142 0-7.5 3.357-7.5 7.5v25.851c0 4.143 3.358 7.5 7.5 7.5s7.5-3.357 7.5-7.5v-18.351h47.12v109.172h-47.12v-58.132c0-4.143-3.358-7.5-7.5-7.5s-7.5 3.357-7.5 7.5v58.132h-8.035c-4.142 0-7.5 3.357-7.5 7.5v31.063c0 4.143 3.358 7.5 7.5 7.5h23.721c3.832 52.115 47.452 93.346 100.523 93.346 19.507 0 38.432-5.646 54.63-16.121v32.802c-15.466 3.061-27.626 15.398-30.438 30.951-17.994 3.253-31.688 19.02-31.688 37.937 0 4.143 3.358 7.5 7.5 7.5h155.311c4.143 0 7.5-3.357 7.5-7.5 0-18.917-13.695-34.684-31.687-37.937-2.811-15.553-14.972-27.89-30.438-30.951v-32.801c16.198 10.474 35.122 16.12 54.63 16.12 53.071 0 96.691-41.231 100.523-93.346h23.721c4.143 0 7.5-3.357 7.5-7.5v-31.063c.002-4.143-3.356-7.5-7.498-7.5zm-70.156-178.792c0-8.588 12.306-31.023 23.563-48.575 11.257 17.547 23.561 39.978 23.561 48.575 0 10.37-6.737 19.19-16.062 22.331v-22.331c0-4.143-3.357-7.5-7.5-7.5s-7.5 3.357-7.5 7.5v22.331c-9.324-3.141-16.062-11.961-16.062-22.331zm-155.311-31.103c0-8.588 12.306-31.023 23.563-48.575 11.257 17.547 23.561 39.978 23.561 48.575 0 10.37-6.737 19.19-16.062 22.331v-22.331c0-4.143-3.357-7.5-7.5-7.5-4.142 0-7.5 3.357-7.5 7.5v22.331c-9.325-3.141-16.062-11.961-16.062-22.331zm-155.311 31.103c0-8.588 12.305-31.021 23.563-48.574 11.257 17.553 23.562 39.986 23.562 48.574 0 10.37-6.737 19.19-16.062 22.331v-22.331c0-4.143-3.358-7.5-7.5-7.5s-7.5 3.357-7.5 7.5v22.331c-9.326-3.141-16.063-11.961-16.063-22.331zm139.78 162.689h78.187v16.063h-78.187zm-155.311 31.103h78.187v16.063h-78.187zm263.336 202.476h-137.864c3.139-9.327 11.967-16.063 22.339-16.063h93.187c10.371.001 19.198 6.736 22.338 16.063zm-31.062-31.062h-75.74c3.064-9.103 11.55-15.719 21.598-16.033.244.024 32.299.024 32.543 0 10.048.314 18.535 6.93 21.599 16.033zm39.79-62.006c-21.088 0-40.393-8.943-57.131-21.841-6.279-4.839-12.279-1.589-12.499 5.591v47.193h-16.06v-47.193c-.22-7.43-5.97-10.93-12.499-5.591-16.358 13.378-36.044 21.841-57.132 21.841-44.782 0-81.639-34.497-85.452-78.346h16.359c3.736 34.83 33.293 62.046 69.094 62.046 38.328 0 69.51-31.178 69.51-69.51v-23.639h16.3v23.66c.011 38.316 31.193 69.488 69.51 69.488 35.801 0 65.358-27.216 69.094-62.046h16.361c-3.797 43.832-40.66 78.347-85.455 78.347zm116.745-93.346h-78.187v-16.062h78.187z"/></svg>