<svg id="Capa_1" enable-background="new 0 0 514.18 514.18" height="512" viewBox="0 0 514.18 514.18" width="512" xmlns="http://www.w3.org/2000/svg"><g><path d="m496.864 462.796h-21.732v-59.624c1.489.482 3.047.737 4.632.737.653 0 1.311-.042 1.969-.127 4.021-.517 7.599-2.569 10.074-5.778l8.952-11.596c2.478-3.208 3.557-7.189 3.04-11.21-.518-4.02-2.569-7.599-5.778-10.076l-20.08-15.5c-3.28-2.531-7.99-1.925-10.52 1.354-2.531 3.279-1.925 7.989 1.354 10.52l20.08 15.5c.065.05.082.179.031.245l-8.953 11.597c-.059.076-.17.089-.244.031l-104.688-80.814v-18.949l68.463 52.85c1.365 1.053 2.978 1.563 4.577 1.563 2.245 0 4.465-1.003 5.942-2.917 2.531-3.279 1.925-7.989-1.354-10.52l-77.629-59.925v-23.789c2.243.771 4.645 1.037 7.068.725 4.146-.533 7.838-2.65 10.391-5.958l8.372-10.844c5.271-6.832 4.004-16.679-2.826-21.952l-25.802-19.917c-3.279-2.53-7.988-1.925-10.52 1.354-2.531 3.279-1.925 7.989 1.354 10.52l25.802 19.917c.284.22.337.63.118.914l-8.372 10.844c-.109.141-.254.224-.431.247-.177.022-.341-.021-.481-.131l-113.02-87.244c-5.631-4.35-13.499-4.349-19.128-.001l-113.021 87.246c-.142.109-.302.153-.481.13-.177-.023-.321-.106-.432-.249l-8.37-10.84c-.22-.285-.167-.696.117-.915l127.167-98.166c2.699-2.083 6.467-2.083 9.166 0l76.063 58.717c3.279 2.53 7.988 1.925 10.52-1.354 2.531-3.279 1.926-7.989-1.354-10.52l-68.275-52.705v-49.083h23.479c5.838 0 10.588-4.75 10.588-10.588v-21.896c0-5.839-4.75-10.589-10.588-10.589h-23.479v-12.531c0-5.839-4.75-10.589-10.589-10.589h-21.896c-5.839 0-10.589 4.75-10.589 10.589v12.531h-23.479c-5.838 0-10.588 4.75-10.588 10.589v21.896c0 5.838 4.75 10.588 10.588 10.588h23.479v49.081l-119.379 92.154c-6.83 5.273-8.098 15.121-2.825 21.954l8.37 10.841c2.554 3.31 6.245 5.427 10.392 5.96.679.087 1.356.131 2.029.131 1.727 0 3.426-.286 5.039-.839v23.773l-123.02 94.965c-6.623 5.113-7.853 14.661-2.739 21.286l8.952 11.596c2.985 3.868 7.484 5.896 12.029 5.896 1.563 0 3.132-.246 4.646-.734v59.63h-21.73c-9.547-.001-17.315 7.766-17.315 17.314v15.843c0 9.548 7.768 17.315 17.315 17.315h479.549c9.548 0 17.315-7.768 17.315-17.315v-15.843c.001-9.548-7.767-17.315-17.315-17.315zm-280.378-410.693v-13.073h26.566c4.143 0 7.5-3.358 7.5-7.5v-15.62h13.074v15.62c0 4.142 3.357 7.5 7.5 7.5h26.566v13.073h-26.566c-4.143 0-7.5 3.358-7.5 7.5v46.868c-4.26-1.292-8.814-1.292-13.074 0v-46.868c0-4.142-3.357-7.5-7.5-7.5zm243.646 340.619v70.074h-15.816v-12.416c0-14.267-11.606-25.873-25.873-25.873s-25.873 11.606-25.873 25.873v12.416h-17.568v-135.79zm-30.817 70.074h-21.746v-12.416c0-5.996 4.878-10.873 10.873-10.873s10.873 4.877 10.873 10.873zm-395.069-73.959-8.952-11.596c-.06-.077-.045-.187.031-.246l113.854-87.889v18.949l-104.688 80.815c-.075.058-.185.045-.245-.033zm19.802 3.886 85.131-65.717v46.05c0 4.142 3.357 7.5 7.5 7.5s7.5-3.358 7.5-7.5v-137.207l102.515-79.135c.233-.181.559-.182.794.001l102.514 79.134v226.948h-50.045v-54.329c0-29.15-23.716-52.866-52.866-52.866s-52.866 23.716-52.866 52.866v54.329h-50.045v-57.777c0-4.142-3.357-7.5-7.5-7.5s-7.5 3.358-7.5 7.5v57.777h-16.57v-12.417c0-14.267-11.606-25.873-25.873-25.873s-25.873 11.606-25.873 25.873v12.416h-16.816zm240.908 70.073h-75.732v-54.329c0-20.879 16.986-37.866 37.866-37.866s37.866 16.987 37.866 37.866zm-187.346 0h-21.746v-12.416c0-5.996 4.878-10.873 10.873-10.873s10.873 4.877 10.873 10.873zm391.57 33.158c0 1.277-1.039 2.315-2.315 2.315h-479.55c-1.276 0-2.315-1.039-2.315-2.315v-15.843c0-1.277 1.039-2.315 2.315-2.315h479.549c1.276 0 2.315 1.039 2.315 2.315v15.843z"/><path d="m240.912 419.555c-4.143 0-7.5 3.358-7.5 7.5v4.068c0 4.142 3.357 7.5 7.5 7.5s7.5-3.358 7.5-7.5v-4.068c0-4.142-3.357-7.5-7.5-7.5z"/><path d="m216.061 278.154 29.419 24.205c3.418 2.813 7.619 4.222 11.822 4.221 4.16 0 8.321-1.379 11.725-4.141l29.914-24.277c14.445-11.724 16.949-32.516 5.702-47.334-11.133-14.668-32.025-17.848-47-7.326-14.974-10.519-35.866-7.343-46.995 7.32l-.109.144c-11.174 14.719-8.748 35.446 5.522 47.188zm6.42-38.114.11-.145c3.777-4.977 9.551-7.601 15.388-7.601 4.01 0 8.05 1.239 11.49 3.806l3.688 2.752c2.66 1.985 6.311 1.985 8.971 0l3.688-2.751c8.448-6.306 20.507-4.601 26.879 3.795 6.325 8.333 4.917 20.025-3.207 26.618l-29.913 24.277c-1.327 1.077-3.246 1.069-4.563-.015l-29.419-24.205c-8.027-6.603-9.391-18.259-3.112-26.531z"/></g></svg>