<svg id="Capa_1" enable-background="new 0 0 512 512" height="512" viewBox="0 0 512 512" width="512" xmlns="http://www.w3.org/2000/svg"><path d="m512 157.51h-121.105c-35.877-66.555-107.228-109.445-182.945-109.27-114.565 0-207.95 93.201-207.95 207.761 0 114.559 93.385 207.759 207.95 207.759 75.918-.077 147.228-42.708 183.126-109.62h120.924zm-60.333 30-66.317 49.527-66.317-49.527zm-420.87 83.249h41.306c1.379 17.854 4.94 35.841 10.505 53.377h-38.841c-6.945-16.67-11.42-34.614-12.97-53.377zm13.115-83.249h37.803c-5.342 17.226-8.724 35.129-9.845 53.249h-41.03c1.598-18.72 6.103-36.622 13.072-53.249zm214.968 136.63h-35.765v-53.38h35.765zm-35.765-83.38v-53.25h35.765v53.25zm0-83.25v-70.233c26.725 15.747 49.755 40.145 66.241 70.233zm-30-70.247v70.248h-66.418c16.157-29.385 39.174-54.191 66.418-70.248zm0 100.247v53.249h-91.188c1.286-18.246 5.169-36.207 11.26-53.249zm-90.925 83.249h90.925v53.377h-78.942c-6.258-17.132-10.393-35.151-11.983-53.377zm90.925 83.377v70.45c-26.437-15.964-49.135-40.934-65.332-70.45zm30 70.379v-70.375h65.158c-16.484 29.992-39.393 54.707-65.158 70.375zm132.818-267.005h-32.991c-11.386-24.539-26.506-46.369-44.343-64.456 31.118 13.563 58.192 35.852 77.334 64.456zm-217.501-65.108c-18.388 18.495-33.765 40.724-45.132 65.109h-33.264c19.139-28.646 46.366-51.449 78.396-65.109zm-78.63 261.734h34.509c11.353 24.337 26.622 46.925 45.518 66.046-32.766-13.644-60.6-36.819-80.027-66.046zm217.307 65.468c17.871-18.241 33.146-40.418 44.793-65.464h34.261c-19.461 29.239-47.18 51.917-79.054 65.464zm11.771-95.464v-121.706l96.47 72.046 96.47-72.046v121.706z"/></svg>