<svg id="Layer_1" enable-background="new 0 0 510 510" height="512" viewBox="0 0 510 510" width="512" xmlns="http://www.w3.org/2000/svg"><path d="m336.4 285c-20.071 0-36.4-16.329-36.4-36.399v-2.483c27.296-13.832 45-42.044 45-73.257v-55.44c17.459-6.192 30-22.865 30-42.42v-75.001h-165c-24.814 0-45 20.187-45 45v45 30 52.86c0 31.219 17.711 59.438 45 73.261v2.48c0 20.07-16.329 36.399-36.4 36.399-54.368 0-98.6 44.231-98.6 98.6v126.4h360v-126.4c0-54.369-44.231-98.6-98.6-98.6zm-81.4 45.846-26.746-44.578c6.261-9.056 10.332-19.735 11.44-31.268h30.611c1.108 11.532 5.18 22.212 11.44 31.268zm-60-285.846c0-8.271 6.729-15 15-15h135v45c0 8.271-6.728 15-15 15h-135zm0 127.86v-52.86h120v52.86c0 28.718-23.297 52.14-52.14 52.14h-15.72c-28.905 0-52.14-23.476-52.14-52.14zm210 307.14h-30v-61h-30v61h-180v-61h-30v61h-30v-96.4c0-37.826 30.774-68.6 68.601-68.6 11.584 0 22.479-2.993 31.969-8.229l34.43 57.383v24.846h-30v30h30v31h30v-31h30v-30h-30v-24.846l34.431-57.384c9.49 5.236 20.385 8.229 31.97 8.229 37.826 0 68.6 30.773 68.6 68.6v96.401z"/></svg>